<?xml version="1.0" encoding="UTF-8"?>
<svg id="Layer_1" data-name="Layer 1" xmlns="http://www.w3.org/2000/svg" version="1.1" viewBox="0 0 268.3 228.2">
  <defs>
    <style>
      .cls-1 {
        fill: #000;
        fill-opacity: 0;
      }

      .cls-1, .cls-2 {
        stroke-width: 0px;
      }

      .cls-2 {
        fill: #cbe1fd;
        fill-opacity: .9;
      }
    </style>
  </defs>
  <rect class="cls-1" y="0" width="16" height="18.8"/>
  <path class="cls-2 back" d="M0,114.1c0,3.9,1.5,8.4,6.6,13.3l99.2,93.4c5.3,5,9.9,7.3,15.5,7.3s13.2-5.7,13.2-13.4v-49.5h104.1c18.8,0,29.6-10.5,29.6-29v-43.8c0-18.5-10.7-28.9-29.6-28.9h-104.1V14.1C134.6,6.3,129.2,0,121.2,0s-9.6,2.5-15.3,7.9L6.6,100.6c-5.3,5-6.6,9.4-6.6,13.5ZM19.2,114.1c0-1.1.5-2.1,2-3.5L112.9,23.2c.8-.6,1.6-1.2,2.5-1.2s1.9.8,1.9,1.9v51.8c0,2.7,1.2,4,4,4h117.2c8.7,0,13.5,4.8,13.5,13.4v42.3c0,8.7-4.8,13.5-13.5,13.5h-117.2c-2.8,0-4,1.2-4,4v50.4c0,1.2-.7,2-1.9,2s-1.6-.3-2.4-1.2L21.2,117.6c-1.6-1.5-2-2.4-2-3.5Z"/>
</svg>